<svg width="18" height="18" viewBox="0 0 18 18" fill="none" xmlns="http://www.w3.org/2000/svg">
<g id="calendar">
<mask id="mask0_367_4617" style="mask-type:alpha" maskUnits="userSpaceOnUse" x="0" y="0" width="18" height="18">
<rect id="Bounding box" width="18" height="18" rx="1" fill="#D9D9D9"/>
</mask>
<g mask="url(#mask0_367_4617)">
<path id="calendar_today" d="M4.33333 15.45C3.96667 15.45 3.65278 15.3208 3.39167 15.0623C3.13056 14.8038 3 14.493 3 14.13V4.89C3 4.527 3.13056 4.21625 3.39167 3.95775C3.65278 3.69925 3.96667 3.57 4.33333 3.57H5V2.91C5 2.723 5.06389 2.56625 5.19167 2.43975C5.31944 2.31325 5.47778 2.25 5.66667 2.25C5.85556 2.25 6.01389 2.31325 6.14167 2.43975C6.26944 2.56625 6.33333 2.723 6.33333 2.91V3.57H11.6667V2.91C11.6667 2.723 11.7306 2.56625 11.8583 2.43975C11.9861 2.31325 12.1444 2.25 12.3333 2.25C12.5222 2.25 12.6806 2.31325 12.8083 2.43975C12.9361 2.56625 13 2.723 13 2.91V3.57H13.6667C14.0333 3.57 14.3472 3.69925 14.6083 3.95775C14.8694 4.21625 15 4.527 15 4.89V14.13C15 14.493 14.8694 14.8038 14.6083 15.0623C14.3472 15.3208 14.0333 15.45 13.6667 15.45H4.33333ZM4.33333 14.13H13.6667V7.53H4.33333V14.13ZM4.33333 6.21H13.6667V4.89H4.33333V6.21Z" fill="#6F6F6F"/>
</g>
</g>
</svg>
