<svg width="28" height="27" viewBox="0 0 28 27" fill="none" xmlns="http://www.w3.org/2000/svg">
<g id="contract">
<mask id="mask0_1003_13177" style="mask-type:alpha" maskUnits="userSpaceOnUse" x="0" y="0" width="28" height="27">
<rect id="Bounding box" x="0.5" width="27" height="27" fill="#D9D9D9"/>
</mask>
<g mask="url(#mask0_1003_13177)">
<path id="contract_2" d="M7.25 24.75C6.3125 24.75 5.51562 24.4219 4.85938 23.7656C4.20312 23.1094 3.875 22.3125 3.875 21.375V20.25C3.875 19.6313 4.09531 19.1016 4.53594 18.6609C4.97656 18.2203 5.50625 18 6.125 18H7.25V4.5C7.25 3.88125 7.47031 3.35156 7.91094 2.91094C8.35156 2.47031 8.88125 2.25 9.5 2.25H21.875C22.4937 2.25 23.0234 2.47031 23.4641 2.91094C23.9047 3.35156 24.125 3.88125 24.125 4.5V21.375C24.125 22.3125 23.7969 23.1094 23.1406 23.7656C22.4844 24.4219 21.6875 24.75 20.75 24.75H7.25ZM20.75 22.5C21.0688 22.5 21.3359 22.3922 21.5516 22.1766C21.7672 21.9609 21.875 21.6938 21.875 21.375V4.5H9.5V18H17.375C17.9937 18 18.5234 18.2203 18.9641 18.6609C19.4047 19.1016 19.625 19.6313 19.625 20.25V21.375C19.625 21.6938 19.7328 21.9609 19.9484 22.1766C20.1641 22.3922 20.4312 22.5 20.75 22.5ZM11.75 10.125C11.4313 10.125 11.1641 10.0172 10.9484 9.80156C10.7328 9.58594 10.625 9.31875 10.625 9C10.625 8.68125 10.7328 8.41406 10.9484 8.19844C11.1641 7.98281 11.4313 7.875 11.75 7.875H19.625C19.9438 7.875 20.2109 7.98281 20.4266 8.19844C20.6422 8.41406 20.75 8.68125 20.75 9C20.75 9.31875 20.6422 9.58594 20.4266 9.80156C20.2109 10.0172 19.9438 10.125 19.625 10.125H11.75ZM11.75 13.5C11.4313 13.5 11.1641 13.3922 10.9484 13.1766C10.7328 12.9609 10.625 12.6938 10.625 12.375C10.625 12.0562 10.7328 11.7891 10.9484 11.5734C11.1641 11.3578 11.4313 11.25 11.75 11.25H19.625C19.9438 11.25 20.2109 11.3578 20.4266 11.5734C20.6422 11.7891 20.75 12.0562 20.75 12.375C20.75 12.6938 20.6422 12.9609 20.4266 13.1766C20.2109 13.3922 19.9438 13.5 19.625 13.5H11.75ZM7.25 22.5H17.375V20.25H6.125V21.375C6.125 21.6938 6.23281 21.9609 6.44844 22.1766C6.66406 22.3922 6.93125 22.5 7.25 22.5ZM7.25 22.5H6.125H17.375H7.25Z" fill="#79BA7E"/>
</g>
</g>
</svg>
