<svg width="18" height="18" viewBox="0 0 18 18" fill="none" xmlns="http://www.w3.org/2000/svg">
<rect width="18" height="18" rx="4" fill="#79BA7E"/>
<mask id="mask0_367_7109" style="mask-type:alpha" maskUnits="userSpaceOnUse" x="0" y="0" width="18" height="18">
<rect width="18" height="18" fill="#D9D9D9"/>
</mask>
<g mask="url(#mask0_367_7109)">
<path d="M7.1625 11.3625L13.5188 5.00625C13.6688 4.85625 13.8438 4.78125 14.0438 4.78125C14.2438 4.78125 14.4188 4.85625 14.5688 5.00625C14.7188 5.15625 14.7938 5.33438 14.7938 5.54063C14.7938 5.74688 14.7188 5.925 14.5688 6.075L7.6875 12.975C7.5375 13.125 7.3625 13.2 7.1625 13.2C6.9625 13.2 6.7875 13.125 6.6375 12.975L3.4125 9.75C3.2625 9.6 3.19063 9.42188 3.19688 9.21563C3.20313 9.00938 3.28125 8.83125 3.43125 8.68125C3.58125 8.53125 3.75938 8.45625 3.96563 8.45625C4.17188 8.45625 4.35 8.53125 4.5 8.68125L7.1625 11.3625Z" fill="white"/>
</g>
</svg>
